#Comment line ignore any data following # character 
#Hierarchical Translation and Rotation (.htr) file 
[Header]	
#Header keywords are followed by a single value 
FileType HTR		#Single word string
DataType HTRS		#Translation followed by rotation and scale data
FileVersion 1		#integer
NumSegments 64		#integer
NumFrames 3		#integer
DataFrameRate 30		#integer, data frame rate in this file
EulerRotationOrder ZYX
CalibrationUnits mm
RotationUnits Degrees
GlobalAxisofGravity Y
BoneLengthAxis Y
ScaleFactor 1.00
[SegmentNames&Hierarchy]
#CHILD	PARENT
Pinger_Root GLOBAL
Pelvis Pinger_Root
L_Hip Pelvis
R_Hip Pelvis
Rear_Leg01 Pelvis
Spine1 Pelvis
L_Leg01 L_Hip
L_Leg02 L_Leg01
L_Leg03 L_Leg02
L_Foot L_Leg03
L_Toe1_01 L_Foot
L_Toe2_01 L_Foot
L_Toe3_01 L_Foot
planeAlignerLeft L_Foot
L_Toe1_02 L_Toe1_01
L_Toe1_03 L_Toe1_02
L_Toe2_02 L_Toe2_01
L_Toe2_03 L_Toe2_02
L_Toe3_02 L_Toe3_01
L_Toe3_03 L_Toe3_02
planeLockWeightLeft planeAlignerLeft
R_Leg01 R_Hip
R_Leg02 R_Leg01
R_Leg03 R_Leg02
R_Foot R_Leg03
planeAlignerRight R_Foot
R_Toe1_01 R_Foot
R_Toe2_01 R_Foot
R_Toe3_01 R_Foot
planeLockWeightRight planeAlignerRight
R_Toe1_02 R_Toe1_01
R_Toe1_03 R_Toe1_02
R_Toe2_02 R_Toe2_01
R_Toe2_03 R_Toe2_02
R_Toe3_02 R_Toe3_01
R_Toe3_03 R_Toe3_02
Rear_Leg02 Rear_Leg01
Rear_Leg03 Rear_Leg02
Rear_Leg04 Rear_Leg03
Rear_Foot Rear_Leg04
planeAlignerCenter Rear_Foot
Rear_Toe1_01 Rear_Foot
Rear_Toe2_01 Rear_Foot
Rear_Toe3_01 Rear_Foot
planeLockWeightCenter planeAlignerCenter
Rear_Toe1_02 Rear_Toe1_01
Rear_Toe1_03 Rear_Toe1_02
Rear_Toe2_02 Rear_Toe2_01
Rear_Toe2_03 Rear_Toe2_02
Rear_Toe3_02 Rear_Toe3_01
Rear_Toe3_03 Rear_Toe3_02
Back_Bone Spine1
Head Spine1
Motor_Bone Back_Bone
Ping_Mechanism Back_Bone
BN_LookIK Head
bottomMouth Head
L_Mouth01 Head
L_mouthFront Head
mouthGun Head
R_Mouth01 Head
R_mouthFront Head
TopMouth Head
weapon_bone Head
[BasePosition]
#SegmentName Tx, Ty, Tz, Rx, Ry, Rz, BoneLength
Pinger_Root 0.000000 0.000000 0.000000 -90.000000 0.000000 0.000000 10.000000 
Pelvis 0.000000 0.000000 0.000000 0.000000 0.000000 0.000000 10.000000 
L_Hip 0.000000 0.000000 0.000000 0.000000 0.000000 0.000000 10.000000 
R_Hip 0.000000 0.000000 0.000000 0.000000 0.000000 0.000000 10.000000 
Rear_Leg01 0.000000 0.000000 0.000000 0.000000 0.000000 0.000000 10.000000 
Spine1 0.000000 0.000000 0.000000 0.000000 0.000000 0.000000 10.000000 
L_Leg01 0.000000 0.000000 0.000000 0.000000 0.000000 0.000000 10.000000 
L_Leg02 0.000000 0.000000 0.000000 0.000000 0.000000 0.000000 10.000000 
L_Leg03 0.000000 0.000000 0.000000 0.000000 0.000000 0.000000 10.000000 
L_Foot 0.000000 0.000000 0.000000 0.000000 0.000000 0.000000 10.000000 
L_Toe1_01 0.000000 0.000000 0.000000 0.000000 0.000000 0.000000 10.000000 
L_Toe2_01 0.000000 0.000000 0.000000 0.000000 0.000000 0.000000 10.000000 
L_Toe3_01 0.000000 0.000000 0.000000 0.000000 0.000000 0.000000 10.000000 
planeAlignerLeft 0.000000 0.000000 0.000000 0.000000 0.000000 0.000000 10.000000 
L_Toe1_02 0.000000 0.000000 0.000000 0.000000 0.000000 0.000000 10.000000 
L_Toe1_03 0.000000 0.000000 0.000000 0.000000 0.000000 0.000000 10.000000 
L_Toe2_02 0.000000 0.000000 0.000000 0.000000 0.000000 0.000000 10.000000 
L_Toe2_03 0.000000 0.000000 0.000000 0.000000 0.000000 0.000000 10.000000 
L_Toe3_02 0.000000 0.000000 0.000000 0.000000 0.000000 0.000000 10.000000 
L_Toe3_03 0.000000 0.000000 0.000000 0.000000 0.000000 0.000000 10.000000 
planeLockWeightLeft 0.000000 0.000000 0.000000 0.000000 0.000000 0.000000 10.000000 
R_Leg01 0.000000 0.000000 0.000000 0.000000 0.000000 0.000000 10.000000 
R_Leg02 0.000000 0.000000 0.000000 0.000000 0.000000 0.000000 10.000000 
R_Leg03 0.000000 0.000000 0.000000 0.000000 0.000000 0.000000 10.000000 
R_Foot 0.000000 0.000000 0.000000 0.000000 0.000000 0.000000 10.000000 
planeAlignerRight 0.000000 0.000000 0.000000 0.000000 0.000000 0.000000 10.000000 
R_Toe1_01 0.000000 0.000000 0.000000 0.000000 0.000000 0.000000 10.000000 
R_Toe2_01 0.000000 0.000000 0.000000 0.000000 0.000000 0.000000 10.000000 
R_Toe3_01 0.000000 0.000000 0.000000 0.000000 0.000000 0.000000 10.000000 
planeLockWeightRight 0.000000 0.000000 0.000000 0.000000 0.000000 0.000000 10.000000 
R_Toe1_02 0.000000 0.000000 0.000000 0.000000 0.000000 0.000000 10.000000 
R_Toe1_03 0.000000 0.000000 0.000000 0.000000 0.000000 0.000000 10.000000 
R_Toe2_02 0.000000 0.000000 0.000000 0.000000 0.000000 0.000000 10.000000 
R_Toe2_03 0.000000 0.000000 0.000000 0.000000 0.000000 0.000000 10.000000 
R_Toe3_02 0.000000 0.000000 0.000000 0.000000 0.000000 0.000000 10.000000 
R_Toe3_03 0.000000 0.000000 0.000000 0.000000 0.000000 0.000000 10.000000 
Rear_Leg02 0.000000 0.000000 0.000000 0.000000 0.000000 0.000000 10.000000 
Rear_Leg03 0.000000 0.000000 0.000000 0.000000 0.000000 0.000000 10.000000 
Rear_Leg04 0.000000 0.000000 0.000000 0.000000 0.000000 0.000000 10.000000 
Rear_Foot 0.000000 0.000000 0.000000 0.000000 0.000000 0.000000 10.000000 
planeAlignerCenter 0.000000 0.000000 0.000000 0.000000 0.000000 0.000000 10.000000 
Rear_Toe1_01 0.000000 0.000000 0.000000 0.000000 0.000000 0.000000 10.000000 
Rear_Toe2_01 0.000000 0.000000 0.000000 0.000000 0.000000 0.000000 10.000000 
Rear_Toe3_01 0.000000 0.000000 0.000000 0.000000 0.000000 0.000000 10.000000 
planeLockWeightCenter 0.000000 0.000000 0.000000 0.000000 0.000000 0.000000 10.000000 
Rear_Toe1_02 0.000000 0.000000 0.000000 0.000000 0.000000 0.000000 10.000000 
Rear_Toe1_03 0.000000 0.000000 0.000000 0.000000 0.000000 0.000000 10.000000 
Rear_Toe2_02 0.000000 0.000000 0.000000 0.000000 0.000000 0.000000 10.000000 
Rear_Toe2_03 0.000000 0.000000 0.000000 0.000000 0.000000 0.000000 10.000000 
Rear_Toe3_02 0.000000 0.000000 0.000000 0.000000 0.000000 0.000000 10.000000 
Rear_Toe3_03 0.000000 0.000000 0.000000 0.000000 0.000000 0.000000 10.000000 
Back_Bone 0.000000 0.000000 0.000000 0.000000 0.000000 0.000000 10.000000 
Head 0.000000 0.000000 0.000000 0.000000 0.000000 0.000000 10.000000 
Motor_Bone 0.000000 0.000000 0.000000 0.000000 0.000000 0.000000 10.000000 
Ping_Mechanism 0.000000 0.000000 0.000000 0.000000 0.000000 0.000000 10.000000 
BN_LookIK 0.000000 0.000000 0.000000 0.000000 0.000000 0.000000 10.000000 
bottomMouth 0.000000 0.000000 0.000000 0.000000 0.000000 0.000000 10.000000 
L_Mouth01 0.000000 0.000000 0.000000 0.000000 0.000000 0.000000 10.000000 
L_mouthFront 0.000000 0.000000 0.000000 0.000000 0.000000 0.000000 10.000000 
mouthGun 0.000000 0.000000 0.000000 0.000000 0.000000 0.000000 10.000000 
R_Mouth01 0.000000 0.000000 0.000000 0.000000 0.000000 0.000000 10.000000 
R_mouthFront 0.000000 0.000000 0.000000 0.000000 0.000000 0.000000 10.000000 
TopMouth 0.000000 0.000000 0.000000 0.000000 0.000000 0.000000 10.000000 
weapon_bone 0.000000 0.000000 0.000000 0.000000 0.000000 0.000000 10.000000 
#Beginning of Data. Separated by tabs
#Fr	Tx	Ty	Tz	Rx	Ry	Rz	SF
[Pinger_Root]
38 0.000000 0.000000 0.000000 -0.000075 -0.000000 -0.000020 0.000000
39 0.000000 0.000000 0.000000 -0.000075 -0.000000 -0.000020 0.000000
40 0.000000 0.000000 0.000000 -0.000075 -0.000000 -0.000020 0.000000
[Pelvis]
38 86.049370 917.629089 4220.821289 -91.414726 -73.603691 83.764236 4320.275391
39 87.205223 911.750793 4219.888184 -91.754150 -73.980988 84.091904 4318.142090
40 88.130676 907.778748 4217.808594 -92.109436 -74.357658 84.435455 4315.291504
[L_Hip]
38 5.766392 125.831482 872.656799 160.158691 -45.484905 122.312202 881.701050
39 5.766392 125.831482 872.656799 160.158691 -45.484905 122.312202 881.701050
40 5.766392 125.831482 872.656799 160.158691 -45.484905 122.312202 881.701050
[R_Hip]
38 5.765438 125.836372 -872.654907 38.087841 49.812687 125.703735 881.699829
39 5.765438 125.836372 -872.654907 38.087841 49.812687 125.703735 881.699829
40 5.765438 125.836372 -872.654907 38.087841 49.812687 125.703735 881.699829
[Rear_Leg01]
38 -192.298416 -925.602966 -0.001907 170.743713 4.818931 -156.850418 945.367432
39 -192.298416 -925.602966 -0.001907 170.596497 4.556627 -157.570663 945.367432
40 -192.298416 -925.602966 -0.001907 170.452652 4.292500 -158.289948 945.367432
[Spine1]
38 290.604584 5.007505 0.000477 7.125876 -0.988172 7.380318 290.647736
39 290.604584 5.007505 0.000477 7.166855 -0.912889 7.849887 290.647736
40 290.604584 5.007505 0.000477 7.187109 -0.879925 8.509636 290.647736
[L_Leg01]
38 761.932007 -0.002384 -0.069261 16.836235 -15.480020 -6.930048 761.932068
39 761.932007 -0.002384 -0.069261 17.148449 -15.289469 -7.207592 761.932068
40 761.932007 -0.002384 -0.069261 17.459417 -15.097463 -7.483802 761.932068
[L_Leg02]
38 1441.140503 -0.000954 -0.000715 3.955007 0.346375 -123.123276 1441.140503
39 1441.140503 -0.000954 -0.000715 3.944012 0.343931 -123.017433 1441.140503
40 1441.140503 -0.000954 -0.000715 3.933014 0.341506 -122.911606 1441.140503
[L_Leg03]
38 1686.963989 -0.000715 -0.000954 -0.065865 0.037697 128.327377 1686.963989
39 1686.963989 -0.000715 -0.000954 -0.065869 0.037689 128.312881 1686.963989
40 1686.963989 -0.000715 -0.000954 -0.065874 0.037680 128.298386 1686.963989
[L_Foot]
38 3041.570068 -30.715107 11.297464 1.641963 12.969077 48.309200 3041.746094
39 3041.570068 -30.715107 11.297464 1.613404 12.970820 48.269115 3041.746094
40 3041.570068 -30.715107 11.297464 1.584842 12.972541 48.229004 3041.746094
[L_Toe1_01]
38 -188.216690 -224.732346 -21.137953 94.350517 -6.851592 -179.942123 293.899567
39 -188.216690 -224.732346 -21.137953 94.350189 -6.851791 -179.936859 293.899567
40 -188.216690 -224.732346 -21.137953 94.349861 -6.851990 -179.931580 293.899567
[L_Toe2_01]
38 200.746536 -219.926590 148.838394 -92.398163 -28.360331 -45.316200 332.896027
39 200.746536 -219.926590 148.838394 -92.404587 -28.364124 -45.311592 332.896027
40 200.746536 -219.926590 148.838394 -92.410995 -28.367926 -45.306995 332.896027
[L_Toe3_01]
38 188.832520 -219.859131 -191.078659 -99.274467 16.164228 -59.637024 347.140900
39 188.832520 -219.859131 -191.078659 -99.262375 16.166697 -59.615604 347.140900
40 188.832520 -219.859131 -191.078659 -99.250290 16.169159 -59.594193 347.140900
[planeAlignerLeft]
38 32.993698 -469.164154 101.109802 169.306686 -76.298271 89.968506 481.068390
39 32.993622 -469.267242 101.109726 169.306686 -76.298271 89.968506 481.168884
40 32.993546 -469.370300 101.109665 169.306686 -76.298271 89.968506 481.269379
[L_Toe1_02]
38 413.761139 0.000477 0.000000 0.000203 -25.410625 -0.000182 413.761139
39 413.761139 0.000477 0.000000 0.000203 -25.410625 -0.000182 413.761139
40 413.761139 0.000477 0.000000 0.000203 -25.410625 -0.000182 413.761139
[L_Toe1_03]
38 464.317322 0.000358 -0.000089 0.004533 59.992046 0.004533 464.317322
39 464.317322 0.000358 -0.000089 0.004533 59.991009 0.004533 464.317322
40 464.317322 0.000358 -0.000089 0.004533 59.989967 0.004533 464.317322
[L_Toe2_02]
38 342.235809 -0.000477 0.000238 0.001198 -66.794205 0.001198 342.235809
39 342.235809 -0.000477 0.000238 0.001198 -66.987190 0.001198 342.235809
40 342.235809 -0.000477 0.000238 0.001197 -67.180115 0.001197 342.235809
[L_Toe2_03]
38 420.210846 -0.000715 0.000000 0.001233 72.936676 -0.001124 420.210846
39 420.210846 -0.000715 0.000000 0.004636 73.209564 0.003458 420.210846
40 420.210846 -0.000715 0.000000 0.008170 73.482399 0.008170 420.210846
[L_Toe3_02]
38 329.270111 0.000954 0.000000 0.001178 -79.754333 0.001178 329.270111
39 329.270111 0.000954 0.000000 0.001178 -79.793785 0.001178 329.270111
40 329.270111 0.000954 0.000000 0.001178 -79.833237 0.001178 329.270111
[L_Toe3_03]
38 439.137451 -0.001907 0.000954 -179.993851 81.665092 -179.990341 439.137451
39 439.137451 -0.001907 0.000954 -179.994034 81.464752 -179.990524 439.137451
40 439.137451 -0.001907 0.000954 -179.994217 81.264420 -179.990707 439.137451
[planeLockWeightLeft]
38 999.998718 0.097961 0.076027 -0.011826 -0.004376 0.005620 999.998779
39 999.998718 0.097961 0.076027 -0.011826 -0.004376 0.005620 999.998779
40 999.998718 0.097961 0.076027 -0.011826 -0.004376 0.005620 999.998779
[R_Leg01]
38 761.455627 -0.001907 -0.000358 125.584953 -15.377659 27.013424 761.455688
39 761.455627 -0.001907 -0.000358 125.441154 -15.177279 27.413279 761.455688
40 761.455627 -0.001907 -0.000358 125.187004 -14.808376 27.863108 761.455688
[R_Leg02]
38 1441.140625 0.000000 -0.000238 -1.868277 -0.522173 -121.502800 1441.140625
39 1441.140625 0.000000 -0.000238 -1.858357 -0.514320 -121.213745 1441.140625
40 1441.140625 0.000000 -0.000238 -1.848397 -0.506518 -120.924728 1441.140625
[R_Leg03]
38 1686.963989 0.000954 0.001431 0.100665 -0.059812 137.709244 1686.963989
39 1686.963989 0.000954 0.001431 0.099807 -0.059313 137.600220 1686.963989
40 1686.963989 0.000954 0.001431 0.098949 -0.058815 137.491196 1686.963989
[R_Foot]
38 3041.560059 -30.531288 -11.204481 0.691422 -24.451584 52.294498 3041.734131
39 3041.560059 -30.531288 -11.204481 0.624696 -24.455498 52.182224 3041.734131
40 3041.560059 -30.531288 -11.204481 0.557980 -24.459538 52.069958 3041.734131
[planeAlignerRight]
38 -127.131371 -450.170685 -312.868927 -36.577137 -71.339012 -64.343925 562.763733
39 -127.131195 -450.273743 -312.869110 -36.577137 -71.339012 -64.343925 562.846191
40 -127.131012 -450.376831 -312.869293 -36.577137 -71.339012 -64.343925 562.928772
[R_Toe1_01]
38 -188.383347 -224.864899 21.052242 77.184853 0.049768 -175.205307 294.101532
39 -188.383347 -224.864899 21.052242 77.184532 0.049853 -175.199448 294.101532
40 -188.383347 -224.864899 21.052242 77.184204 0.049939 -175.193573 294.101532
[R_Toe2_01]
38 200.637817 -220.002121 -148.787384 -88.039299 36.076000 -50.642368 332.857574
39 200.637817 -220.002121 -148.787384 -88.058815 36.073311 -50.678810 332.857574
40 200.637817 -220.002121 -148.787384 -88.078308 36.070606 -50.715240 332.857574
[R_Toe3_01]
38 188.606735 -220.092957 191.126343 -72.841667 -9.511814 -65.688538 347.192566
39 188.606735 -220.092957 191.126343 -72.846298 -9.526264 -65.697975 347.192566
40 188.606735 -220.092957 191.126343 -72.850914 -9.540714 -65.707397 347.192566
[planeLockWeightRight]
38 999.999329 0.000000 0.076017 -0.011823 -0.004379 -0.000027 999.999329
39 999.999329 0.000000 0.076017 -0.011823 -0.004379 -0.000027 999.999329
40 999.999329 0.000000 0.076017 -0.011823 -0.004379 -0.000027 999.999329
[R_Toe1_02]
38 413.762085 0.000477 -0.000119 0.001385 -25.903452 0.001385 413.762085
39 413.762085 0.000477 -0.000119 0.001385 -25.898739 0.001385 413.762085
40 413.762085 0.000477 -0.000119 0.001385 -25.894028 0.001385 413.762085
[R_Toe1_03]
38 464.317810 0.000000 0.001088 0.004049 56.305470 0.004049 464.317810
39 464.317810 0.000000 0.001088 0.004049 56.302414 0.004049 464.317810
40 464.317810 0.000000 0.001088 0.004049 56.299362 0.004049 464.317810
[R_Toe2_02]
38 342.234741 -0.000954 0.000238 0.001215 -60.020905 0.001215 342.234741
39 342.234741 -0.000954 0.000238 0.001214 -60.272869 0.001214 342.234741
40 342.234741 -0.000954 0.000238 0.001214 -60.524815 0.001214 342.234741
[R_Toe2_03]
38 420.210846 0.000715 -0.000268 -0.004096 60.925686 -0.000484 420.210846
39 420.210846 0.000715 -0.000268 -0.004113 61.158882 -0.000503 420.210846
40 420.210846 0.000715 -0.000268 -0.004146 61.600842 -0.000540 420.210846
[R_Toe3_02]
38 329.270355 -0.000477 -0.000954 0.001185 -73.870720 0.001185 329.270355
39 329.270355 -0.000477 -0.000954 0.001185 -73.917061 0.001185 329.270355
40 329.270355 -0.000477 -0.000954 0.001185 -74.077187 0.001185 329.270355
[R_Toe3_03]
38 439.137939 0.000238 0.001431 0.016303 81.743622 0.016303 439.137939
39 439.137939 0.000238 0.001431 0.016731 81.955261 0.016731 439.137939
40 439.137939 0.000238 0.001431 0.017182 82.166824 0.017182 439.137939
[Rear_Leg02]
38 1162.777710 -0.029802 0.005960 0.517084 -2.975043 -100.680595 1162.777710
39 1162.777710 -0.029802 0.005960 0.544012 -2.969478 -102.691452 1162.777710
40 1162.777710 -0.029802 0.005960 0.570760 -2.962965 -104.704765 1162.777710
[Rear_Leg03]
38 607.192505 -0.013351 -0.073195 0.008232 -0.003174 63.854813 607.192505
39 607.192505 -0.013351 -0.073195 0.008577 -0.003406 64.041962 607.192505
40 607.192505 -0.013351 -0.073195 0.008920 -0.003639 64.229118 607.192505
[Rear_Leg04]
38 995.874512 -0.020504 -0.011921 -0.040397 -0.015485 57.326473 995.874573
39 995.874512 -0.020504 -0.011921 -0.040444 -0.015359 57.683884 995.874573
40 995.874512 -0.020504 -0.011921 -0.040491 -0.015232 58.041275 995.874573
[Rear_Foot]
38 3096.176270 -0.067472 -0.041425 -140.701675 85.772560 46.286366 3096.176270
39 3096.176270 -0.067472 -0.041425 -141.107330 85.753838 46.264713 3096.176270
40 3096.176270 -0.067472 -0.041425 -141.511169 85.735298 46.245224 3096.176270
[planeAlignerCenter]
38 1.038167 -15.213953 -653.303162 12.240772 -0.001473 179.998184 653.481079
39 1.038132 -15.214081 -653.405945 12.240772 -0.001473 179.998184 653.583923
40 1.038097 -15.214208 -653.508789 12.240769 -0.001473 179.998184 653.686646
[Rear_Toe1_01]
38 0.653352 83.966492 -371.173737 0.241070 34.831047 90.384972 380.553192
39 0.653352 83.966492 -371.173737 0.241978 34.831329 90.385162 380.553192
40 0.653352 83.966492 -371.173737 0.242885 34.831600 90.385368 380.553192
[Rear_Toe2_01]
38 178.200760 -294.826019 -362.060547 -8.130853 23.270813 -67.026207 499.765686
39 178.200760 -294.826019 -362.060547 -8.131295 23.317564 -67.026871 499.765686
40 178.200760 -294.826019 -362.060547 -8.133582 23.484978 -67.028297 499.765686
[Rear_Toe3_01]
38 -153.359680 -308.780914 -362.060852 3.713456 21.366520 -112.327545 499.952881
39 -153.359680 -308.780914 -362.060852 3.714672 21.535498 -112.323105 499.952881
40 -153.359680 -308.780914 -362.060852 3.715901 21.704462 -112.318611 499.952881
[planeLockWeightCenter]
38 1000.000000 0.000305 0.076256 -0.011814 -0.004373 -0.000015 1000.000000
39 1000.000000 0.000305 0.076256 -0.011814 -0.004373 -0.000015 1000.000000
40 1000.000000 0.000305 0.076256 -0.011814 -0.004373 -0.000015 1000.000000
[Rear_Toe1_02]
38 379.707825 0.194073 0.000477 -0.000313 -32.651272 0.006974 379.707855
39 379.707825 0.194073 0.000477 -0.000313 -32.649548 0.006974 379.707855
40 379.707825 0.194073 0.000477 -0.000313 -32.647835 0.006974 379.707855
[Rear_Toe1_03]
38 500.129700 0.165701 0.000119 -0.003903 57.976246 -0.000265 500.129761
39 500.129700 0.165701 0.000119 -0.003902 57.962105 -0.000264 500.129761
40 500.129700 0.165701 0.000119 -0.003901 57.947975 -0.000263 500.129761
[Rear_Toe2_02]
38 340.494507 0.000238 -0.000954 0.001238 -52.880253 0.001238 340.494507
39 340.494507 0.000238 -0.000954 0.001237 -53.167648 0.001237 340.494507
40 340.494507 0.000238 -0.000954 0.001236 -53.455029 0.001236 340.494507
[Rear_Toe2_03]
38 433.103577 0.000000 0.000238 0.001007 47.565250 0.002258 433.103546
39 433.103577 0.000000 0.000238 0.003262 47.822746 0.003262 433.103546
40 433.103577 0.000000 0.000238 0.003298 48.309231 0.003298 433.103546
[Rear_Toe3_02]
38 340.494141 -0.000358 -0.000477 -0.002490 -47.758080 -0.002490 340.494171
39 340.494141 -0.000358 -0.000477 -0.002488 -48.019344 -0.002488 340.494171
40 340.494141 -0.000358 -0.000477 -0.002484 -48.509846 -0.002484 340.494171
[Rear_Toe3_03]
38 433.103577 0.001431 -0.000238 0.000504 41.913483 -0.003325 433.103546
39 433.103577 0.001431 -0.000238 0.000494 42.195801 -0.003331 433.103546
40 433.103577 0.001431 -0.000238 0.000475 42.725574 -0.003342 433.103546
[Back_Bone]
38 1312.175781 -701.934692 0.000954 0.000016 -0.001760 -91.026031 1488.125488
39 1312.175781 -701.934692 0.000954 0.000008 -0.001174 -90.827576 1488.125488
40 1312.175781 -701.934692 0.000954 0.000003 -0.000587 -90.629135 1488.125488
[Head]
38 1406.159424 809.709290 0.001431 0.031998 -1.473863 10.484288 1622.625488
39 1406.159424 809.709290 0.001431 0.049252 -1.472887 10.436886 1622.625488
40 1406.159424 809.709290 0.001431 0.066505 -1.471897 10.389482 1622.625488
[Motor_Bone]
38 1158.364380 -417.834747 0.000477 -0.057876 0.119417 -103.249222 1231.419434
39 1158.364380 -417.834747 0.000477 -0.066176 0.113069 -103.473190 1231.419434
40 1158.364380 -417.834747 0.000477 -0.071998 0.105965 -103.970566 1231.419434
[Ping_Mechanism]
38 1295.667358 -452.768524 8.925254 0.000103 -0.000053 82.120995 1372.527954
39 1293.200195 -452.977112 8.311955 0.000103 -0.000053 82.120995 1370.264160
40 1290.732910 -453.185699 7.698657 0.000103 -0.000053 82.120995 1368.001465
[BN_LookIK]
38 193.241119 1380.371704 -0.002861 0.000000 89.965736 -31.038179 1393.832153
39 193.241119 1380.371704 -0.002861 0.000000 89.965736 -31.038179 1393.832153
40 193.241119 1380.371704 -0.002861 0.000000 89.965736 -31.038179 1393.832153
[bottomMouth]
38 -435.092926 615.759399 -0.000954 -0.000022 0.000016 73.527184 753.966492
39 -435.092926 615.759399 -0.000954 -0.000022 0.000016 73.527184 753.966492
40 -435.092926 615.759399 -0.000954 -0.000022 0.000016 73.527184 753.966492
[L_Mouth01]
38 554.440979 7.658243 838.222046 150.204178 23.759130 109.605339 1005.027161
39 554.440979 7.658243 838.222046 150.204178 23.759130 109.605339 1005.027161
40 554.440979 7.658243 838.222046 150.204178 23.759130 109.605339 1005.027161
[L_mouthFront]
38 551.629089 934.514771 339.150421 0.000081 2.804060 79.119301 1136.941284
39 551.629089 934.514771 339.150421 0.000081 2.804060 79.119301 1136.941284
40 551.629089 934.514771 339.150421 0.000081 2.804060 79.119301 1136.941284
[mouthGun]
38 55.332661 1627.420898 0.000000 0.000023 0.000009 -11.038128 1628.361328
39 55.332661 1627.420898 0.000000 0.000023 0.000009 -11.038128 1628.361328
40 55.332661 1627.420898 0.000000 0.000023 0.000009 -11.038128 1628.361328
[R_Mouth01]
38 554.442383 7.659197 -838.223938 29.795891 -23.759109 109.605331 1005.029541
39 554.442383 7.659197 -838.223938 29.795891 -23.759109 109.605331 1005.029541
40 554.442383 7.659197 -838.223938 29.795891 -23.759109 109.605331 1005.029541
[R_mouthFront]
38 551.629089 934.514282 -339.151367 0.000029 -2.803930 79.119133 1136.941162
39 551.629089 934.514282 -339.151367 0.000029 -2.803930 79.119133 1136.941162
40 551.629089 934.514282 -339.151367 0.000029 -2.803930 79.119133 1136.941162
[TopMouth]
38 461.269867 -56.106091 -0.008583 -0.000059 -0.000268 92.025169 464.669525
39 461.269867 -56.106091 -0.008583 -0.000059 -0.000268 92.025169 464.669525
40 461.269867 -56.106091 -0.008583 -0.000059 -0.000268 92.025169 464.669525
[weapon_bone]
38 -987.239868 1448.372803 0.001431 0.000000 89.965736 -31.038221 1752.833740
39 -987.239868 1448.372803 0.001431 0.000000 89.965736 -31.038221 1752.833740
40 -987.239868 1448.372803 0.001431 0.000000 89.965736 -31.038221 1752.833740
